<?xml version="1.0" encoding="UTF-8"?>
<svg class="style-scope ytd-topbar-logo-renderer" display="block" pointer-events="none" style="height:100%;width:100%" focusable="false" viewBox="0 0 65 60" xmlns="http://www.w3.org/2000/svg">
<g class="style-scope ytd-topbar-logo-renderer" preserveAspectRatio="xMidYMid meet" viewBox="0 0 200 60">
<g class="style-scope ytd-topbar-logo-renderer">
<path class="style-scope ytd-topbar-logo-renderer" d="m63 14.87c-0.72-2.7-2.85-4.83-5.56-5.56-4.9-1.31-24.56-1.31-24.56-1.31s-19.65 0-24.56 1.31c-2.7 0.72-4.83 2.85-5.56 5.56-1.31 4.9-1.31 15.13-1.31 15.13s0 10.23 1.31 15.13c0.72 2.7 2.85 4.83 5.56 5.56 4.91 1.31 24.56 1.31 24.56 1.31s19.66 0 24.56-1.31c2.7-0.72 4.83-2.85 5.56-5.56 1.31-4.9 1.31-15.13 1.31-15.13s0-10.23-1.31-15.13z" fill="#f00"/>
<polygon class="style-scope ytd-topbar-logo-renderer" points="26.6 39.43 42.93 30 26.6 20.57" fill="#fff"/>
</g>
</g>
</svg>
